{"title":"Bellator 146 Prelims WEBRip x264 -={SPARROW}=-","uid":12858438,"size":1666111348,"categoryP":"video","categoryS":"tv_shows","magnet":"?xt=urn:btih:cf5b7b9af49cddaa8d496ef62ac6d173f130e7ae&amp;dn=Bellator+146+Prelims+WEBRip+x264+-%3D%7BSPARROW%7D%3D-&amp;tr=udp%3A%2F%2Ftracker.leechers-paradise.org%3A6969&amp;tr=udp%3A%2F%2Fzer0day.ch%3A1337&amp;tr=udp%3A%2F%2Fopen.demonii.com%3A1337&amp;tr=udp%3A%2F%2Ftracker.coppersurfer.tk%3A6969&amp;tr=udp%3A%2F%2Fexodus.desync.com%3A6969","seeders":1,"leechers":0,"uploader":"CenaCme","files":2,"time":1448709753,"description":"General\r\nFormat                         : MPEG-4\r\nFormat profile                 : Base Media\r\nCodec ID                       : isom\r\nFile size                      : 1.55 GiB\r\nDuration                       : 1h 38mn\r\nOverall bit rate mode          : Variable\r\nOverall bit rate               : 2 264 Kbps\r\nWriting application            : Lavf54.63.104\r\n\r\nVideo\r\nID                             : 1\r\nFormat                         : AVC\r\nFormat/Info                    : Advanced Video Codec\r\nFormat profile                 :   \r\nFormat settings, CABAC         : Yes\r\nFormat settings, ReFrames      : 1 frame\r\nCodec ID                       : avc1\r\nCodec ID/Info                  : Advanced Video Coding\r\nDuration                       : 1h 38mn\r\nBit rate                       : 2 100 Kbps\r\nWidth                          : 960 pixels\r\nHeight                         : 540 pixels\r\nDisplay aspect ratio           : 16:9\r\nFrame rate mode                : Constant\r\nFrame rate                     : 29.970 fps\r\nColor space                    : YUV\r\nChroma subsampling             : 4:2:0\r\nBit depth                      : 8 bits\r\nScan type                      : Progressive\r\nBits/(Pixel*Frame)             : 0.135\r\nStream size                    : 1.43 GiB (92%)\r\nWriting library                : x264 core 129\r\nEncoding settings              : cabac=1 / ref=1 / deblock=1:0:0 / analyse=0x1:0x131 / me=dia / subme=2 / psy=1 / psy_rd=1.00:0.00 / mixed_ref=0 / me_range=16 / chroma_me=1 / trellis=0 / 8x8dct=0 / cqm=0 / deadzone=21,11 / fast_pskip=1 / chroma_qp_offset=0 / threads=4 / lookahead_threads=1 / sliced_threads=0 / nr=0 / decimate=1 / interlaced=0 / bluray_compat=0 / constrained_intra=0 / bframes=0 / weightp=2 / keyint=250 / keyint_min=25 / scenecut=40 / intra_refresh=0 / rc_lookahead=40 / rc=abr / mbtree=1 / bitrate=2100 / ratetol=1.0 / qcomp=0.60 / qpmin=10 / qpmax=51 / qpstep=4 / ip_ratio=1.41 / aq=1:1.00\r\n\r\nAudio\r\nID                             : 2\r\nFormat                         : AAC\r\nFormat/Info                    : Advanced Audio Codec\r\nFormat profile                 : LC\r\nCodec ID                       : 40\r\nDuration                       : 1h 38mn\r\nDuration_FirstFrame            : 64ms\r\nBit rate mode                  : Variable\r\nBit rate                       : 165 Kbps\r\nMaximum bit rate               : 192 Kbps\r\nChannel(s)                     : 2 channels\r\nChannel positions              : Front: L R\r\nSampling rate                  : 48.0 KHz\r\nCompression mode               : Lossy\r\nStream size                    : 116 MiB (7%)\r\n\r\n\r\nThumb sheet:\r\n \nhttp://imgsparrow.co/image/9TV","torrent":{"xt":"urn:btih:cf5b7b9af49cddaa8d496ef62ac6d173f130e7ae","amp;dn":"Bellator+146+Prelims+WEBRip+x264+-%3D%7BSPARROW%7D%3D-","amp;tr":["udp%3A%2F%2Ftracker.leechers-paradise.org%3A6969","udp%3A%2F%2Fzer0day.ch%3A1337","udp%3A%2F%2Fopen.demonii.com%3A1337","udp%3A%2F%2Ftracker.coppersurfer.tk%3A6969","udp%3A%2F%2Fexodus.desync.com%3A6969"],"infoHash":"cf5b7b9af49cddaa8d496ef62ac6d173f130e7ae","infoHashBuffer":{"type":"Buffer","data":[207,91,123,154,244,156,221,170,141,73,110,246,42,198,209,115,241,48,231,174]},"announce":[],"urlList":[]}}